<?xml version="1.0"?>
<svg fill="#031A6B" xmlns="http://www.w3.org/2000/svg" viewBox="0 0 512 512" width="512" height="512"><g id="outline"><path d="M256,416c88.224,0,160-71.775,160-160S344.224,96,256,96,96,167.775,96,256,167.776,416,256,416Zm0-304c79.4,0,144,64.6,144,144S335.4,400,256,400,112,335.4,112,256,176.6,112,256,112Z"/><path d="M248,278.624V320a8,8,0,0,0,16,0V278.624a23.99,23.99,0,0,0,13.655-32.965l0,0,24-24a8,8,0,0,0-11.314-11.314l-24,24,0,0A24,24,0,1,0,248,278.624ZM256,248a8,8,0,1,1-8,8A8.009,8.009,0,0,1,256,248Z"/><path d="M144.9,319.519c.079.161.155.323.246.481s.191.283.286.426a128.956,128.956,0,0,0,45.956,46.031c.2.138.4.272.609.394.109.063.224.107.334.164a127.814,127.814,0,0,0,127.332,0c.11-.057.225-.1.334-.164.212-.122.413-.256.609-.394a128.956,128.956,0,0,0,45.956-46.031c.1-.143.2-.276.286-.426s.167-.32.246-.481a127.8,127.8,0,0,0,0-127.038c-.079-.161-.155-.323-.246-.481-.124-.215-.259-.419-.4-.617a128.96,128.96,0,0,0-45.843-45.84c-.2-.138-.4-.272-.609-.394-.155-.089-.315-.164-.474-.242a127.8,127.8,0,0,0-127.057,0c-.157.078-.315.152-.469.24-.212.122-.413.256-.609.394a128.96,128.96,0,0,0-45.843,45.84c-.14.2-.275.4-.4.617-.091.158-.167.32-.246.481a127.8,127.8,0,0,0,0,127.038Zm10.362-112.441,13.6,7.85a8,8,0,1,0,8-13.856l-13.576-7.838a112.915,112.915,0,0,1,29.949-29.948l7.838,13.575a8,8,0,1,0,13.856-8l-7.85-13.6A111.156,111.156,0,0,1,248,144.289V160a8,8,0,0,0,16,0V144.289a111.156,111.156,0,0,1,40.922,10.976l-7.85,13.6a8,8,0,1,0,13.856,8l7.838-13.575a112.915,112.915,0,0,1,29.949,29.948l-13.576,7.838a8,8,0,1,0,8,13.856l13.6-7.85A111.151,111.151,0,0,1,367.711,248H352a8,8,0,0,0,0,16h15.711a111.151,111.151,0,0,1-10.976,40.922l-13.6-7.85a8,8,0,1,0-8,13.856l13.576,7.838a112.915,112.915,0,0,1-29.949,29.948l-7.838-13.575a8,8,0,1,0-13.856,8l7.85,13.6A111.156,111.156,0,0,1,264,367.711V352a8,8,0,0,0-16,0v15.711a111.156,111.156,0,0,1-40.922-10.976l7.85-13.6a8,8,0,0,0-13.856-8l-7.838,13.575a112.915,112.915,0,0,1-29.949-29.948l13.576-7.838a8,8,0,1,0-8-13.856l-13.6,7.85A111.151,111.151,0,0,1,144.289,264H160a8,8,0,0,0,0-16H144.289A111.151,111.151,0,0,1,155.265,207.078Z"/><path d="M474.619,230.019A220.062,220.062,0,0,0,148.79,64.071a8,8,0,1,0,7.8,13.969A204.07,204.07,0,0,1,382.269,95.785c88.426,69.529,103.8,198.036,34.271,286.462a204,204,0,0,1-286.463,34.271c-82.515-64.881-102-182.1-46.038-269.854l1.645,13.746a8,8,0,0,0,15.886-1.9l-4.109-34.35a7.994,7.994,0,0,0-8.894-6.993l-34.349,4.109a8,8,0,0,0,1.9,15.887l16.265-1.946a220.05,220.05,0,0,0,183.35,340.971,223.729,223.729,0,0,0,26.573-1.59A220,220,0,0,0,474.619,230.019Z"/></g></svg>
