<svg id="Capa_1" enable-background="new 0 0 508 508" height="512" viewBox="0 0 508 508" width="512" xmlns="http://www.w3.org/2000/svg"><g><path d="m51.921 263.881h-41.921c-5.523 0-10-4.477-10-10s4.477-10 10-10h41.921c5.523 0 10 4.477 10 10s-4.477 10-10 10zm446.079-20h-41.921c-5.523 0-10 4.477-10 10s4.477 10 10 10h41.921c5.523 0 10-4.477 10-10s-4.477-10-10-10zm-424.006 102.38-36.305 20.96c-4.783 2.761-6.422 8.877-3.66 13.66s8.877 6.422 13.66 3.66l36.305-20.96c4.783-2.761 6.422-8.877 3.66-13.66s-8.877-6.422-13.66-3.66zm360.012-184.759 36.305-20.96c4.783-2.761 6.422-8.877 3.66-13.66-2.761-4.783-8.877-6.422-13.66-3.66l-36.305 20.96c-4.783 2.761-6.422 8.877-3.66 13.66s8.877 6.422 13.66 3.66zm36.304 205.719-36.305-20.96c-4.783-2.762-10.899-1.123-13.66 3.66s-1.123 10.899 3.66 13.66l36.305 20.96c4.783 2.762 10.899 1.123 13.66-3.66s1.123-10.899-3.66-13.66zm-386.316-223.039-36.305-20.96c-4.783-2.762-10.899-1.123-13.66 3.66s-1.123 10.899 3.66 13.66l36.305 20.96c4.783 2.762 10.899 1.123 13.66-3.66s1.123-10.899-3.66-13.66zm309.183 26.668h-127.777l10.63-26c5.023-12.282-13.487-19.852-18.51-7.57l-16.265 39.786c-2.689 6.579 2.149 13.784 9.256 13.784h125.279l-136.9 235.41 32.47-158.402c1.271-6.201-3.466-12.008-9.796-12.008h-133.354l65.6-222h106l-8.23 20.12c-5.043 12.338 13.477 19.908 18.52 7.57l13.864-33.905c2.69-6.579-2.149-13.785-9.256-13.785h-128.378c-4.5 0-8.32 3-9.56 7.11-.009.01-52.915 179.068-71.534 242.079-1.891 6.4 2.908 12.812 9.581 12.812h134.493l-42.275 206.249c-2.275 11.097 12.746 16.828 18.441 7.035l176.346-303.258c3.876-6.667-.933-15.027-8.645-15.027zm-109.368-81.44c-5.523 0-10 4.477-10 10s4.477 10 10 10 10-4.477 10-10-4.477-10-10-10z"/></g></svg>