<svg height="512pt" fill="#031A6B" viewBox="-39 0 512 512" width="512pt" xmlns="http://www.w3.org/2000/svg"><path d="m217.390625 512c-1.035156 0-2.070313-.160156-3.070313-.480469-62.675781-20.210937-116.292968-59.03125-155.0625-112.265625-38.765624-53.230468-59.257812-116.179687-59.257812-182.03125v-116.40625c0-3.96875 2.351562-7.566406 5.988281-9.160156l207.390625-90.816406c2.558594-1.121094 5.464844-1.121094 8.023438 0l207.386718 90.816406c3.640626 1.59375 5.992188 5.191406 5.992188 9.160156v116.40625c0 65.851563-20.492188 128.796875-59.257812 182.03125-38.769532 53.234375-92.386719 92.054688-155.0625 112.261719-1 .324219-2.035157.484375-3.070313.484375zm-197.390625-404.644531v109.867187c0 124.902344 79.183594 234.707032 197.390625 274.253906 118.207031-39.546874 197.390625-149.351562 197.390625-274.253906v-109.867187l-197.390625-86.4375zm0 0"/><path d="m297.390625 227.046875v-37.558594c0-44.113281-35.886719-80-80-80s-80 35.886719-80 80v37.558594c-16.1875 18.617187-26 42.917969-26 69.464844 0 58.449219 47.550781 106 106 106s106-47.550781 106-106c0-26.546875-9.8125-50.847657-26-69.464844zm-80-97.558594c33.082031 0 60 26.914063 60 60v19.691407c-17.074219-11.765626-37.746094-18.664063-60-18.664063-22.257813 0-42.929687 6.898437-60 18.664063v-19.691407c0-33.085937 26.914063-60 60-60zm0 253.023438c-47.421875 0-86-38.578125-86-86 0-47.417969 38.578125-86 86-86 47.417969 0 86 38.582031 86 86 0 47.421875-38.578125 86-86 86zm0 0"/><path d="m217.449219 357.074219c-14.851563 0-26.933594-12.082031-26.933594-26.933594v-19.199219c-7.671875-7.84375-11.519531-18.65625-10.421875-29.816406 1.707031-17.410156 15.558594-31.445312 32.933594-33.375 10.617187-1.179688 21.238281 2.203125 29.144531 9.277344 7.910156 7.082031 12.445313 17.230468 12.445313 27.839844 0 9.664062-3.675782 18.78125-10.230469 25.679687v19.59375c0 14.851563-12.085938 26.933594-26.9375 26.933594zm-.183594-89.5625c-.671875 0-1.347656.039062-2.03125.113281-8.035156.894531-14.445313 7.394531-15.238281 15.453125-.589844 6.023437 1.894531 11.820313 6.648437 15.507813 2.441407 1.894531 3.871094 4.8125 3.871094 7.902343v23.652344c0 3.824219 3.109375 6.933594 6.933594 6.933594s6.9375-3.109375 6.9375-6.933594v-23.949219c0-3.03125 1.375-5.898437 3.734375-7.796875 4.128906-3.316406 6.5-8.25 6.5-13.527343 0-4.929688-2.109375-9.644532-5.789063-12.9375-3.222656-2.882813-7.269531-4.417969-11.566406-4.417969zm0 0"/><path d="m58 227.222656c-5.523438 0-10-4.476562-10-10v-85.023437c0-3.972657 2.351562-7.566407 5.988281-9.160157l108.464844-47.5c5.058594-2.214843 10.957031.089844 13.171875 5.152344 2.214844 5.058594-.089844 10.953125-5.148438 13.167969l-102.476562 44.878906v78.484375c0 5.523438-4.476562 10-10 10zm0 0"/><path d="m203.109375 78.648438c-2.628906 0-5.210937-1.058594-7.070313-2.929688-1.859374-1.859375-2.929687-4.429688-2.929687-7.070312 0-2.628907 1.070313-5.207032 2.929687-7.070313 1.859376-1.859375 4.441407-2.929687 7.070313-2.929687 2.640625 0 5.21875 1.070312 7.070313 2.929687 1.871093 1.863281 2.929687 4.441406 2.929687 7.070313 0 2.640624-1.058594 5.210937-2.929687 7.070312-1.859376 1.871094-4.429688 2.929688-7.070313 2.929688zm0 0"/></svg>
